#手工编写的一个简单Obj格式

mtllib box.mtl
v -10 -10 -10
v 10  -10 -10
v 10 10 -10
v -10 10 -10

v -10 -10 10
v 10 -10 10
v 10 10 10
v -10 10 10

vt 0.0 0.0
vt 1.0 0.0
vt 0.0 1.0
vt 1.0 1.0

vn -0.5773 -0.5773 -0.5773
vn 0.5773 -0.5773 -0.5773
vn 0.5773 0.5773 -0.5773
vn -0.5773 0.5773 -0.5773
vn -0.5773 -0.5773 0.5773
vn 0.5773 -0.5773 0.5773
vn 0.5773 0.5773 0.5773
vn -0.5773 0.5773 0.5773

g box
usemtl box
f 1/3/1 4/1/4 3/2/3
f 3/2/3 2/4/2 1/3/1
f 5/3/5 8/1/8 4/2/4
f 4/2/4 1/4/1 5/3/5

f 4/3/4 8/1/8 7/2/7
f 7/2/7 3/4/3 4/3/4 

f 2/3/2 3/1/3  7/2/7
f 7/2/7 6/4/6  2/3/2


f 6/3/6 7/1/7  8/2/8
f 8/2/8 5/4/5  6/3/6

f 5/3/5  1/1/1  2/2/2
f 2/2/2   6/4/6 5/3/5

















